<svg xmlns="http://www.w3.org/2000/svg" viewBox="0 0 1350 900"><defs><path id="a" d="M304.08 485.28a4.77 4.28 0 1 1-9.55 0 4.77 4.28 0 1 1 9.55 0z"/></defs><path fill="#fff" d="M235.04-110.67h863.77v1130.1H235.04z"/><path fill="#2f418c" d="M-41.13-55.83h372.15v1044H-41.13z"/><path fill="#d03528" d="M1002.8-67.58h432.86v1024.4H1002.8z"/><path d="M498.53 242.12v356.97s.06 14.55 10.47 23.09c10.9 8.94 23.75 8.09 23.75 8.09l102.65.35s15.12.02 22.6 11.12c6.26 9.29 8.87 19.74 9.34 22.59v.78l.06-.41.06.41v-.78c.47-2.85 2.3-13.07 9.34-22.59 8.97-12.12 23.3-11.47 23.3-11.47h101.95s13.66.82 23.75-8.09c10.9-9.64 10.47-23.09 10.47-23.09V242.12H667.34z"/><path fill="#ccc" d="M501.35 245.03v318.56h24.8c-.5-2.79-2.09-9.27-7.11-19.62-6.91-14.26-10.38-15.07-10.36-18.03s10.12-11.74 6.45-23.41c-2.57-8.18-9.99-5.77-11.12-7.31-1.05-1.45-2.04-16.57 2.35-39.28a332 332 0 0 1 17.88-61.44c10.28-26 32.41-70.19 37.95-74.81 1.27-1.06 7.33 6.25 7.33 6.25s12.32.35 15.03 1.25c2.76.92 7.14 5.88 7.14 5.88s5.48 1.33 8.08 2.34c3.07 1.19 4.75 1.96 6.26 4.81-3.73 9.29-4.81 4.64-10.58 12.5-3.59 1.62-8 .24-11.09 2.5-4.98 3.66-6.45 18.22-6.45 18.22s7.89.91 15.03-2.87c6.44-3.41 10.64-8.34 19.35-14.62 10.34-7.45 20.42-8.81 20.42-8.81s2.56 5.14 4.45 8.62c-5.6.91-6.27.5-14.5 9.66s-7.45 12.58-15.7 21.62-13.26 9.31-19.21 13.17c6.73 1.03 24.05-2.79 28.37 1.47 3.75 3.69 3.04 7.02 1.99 10.15-.81 2.41-6.49 3.61-6.49 3.61s-3.67-.84-10.02-.75c-7.91.11-7.4 5.63-13.72 7.01-5.19 1.13-13-.2-13-.2s.71 2.98 9.49 2.69c-4.74 12.22-20.23 34.47-20.23 34.47s13.13 2.41 20.04 10.16c8.27 9.28 3.06 18.93 3.07 24.28.01 6.79-2.1 12.51 4.63 19.84s16.66 5.53 16.66 5.53l-.19 10.72h-21.48s-9.57-9.62-19.67-16.09c.28-3.15 2.82-10.97-.72-13.56-7.21-5.27-16.47-4.28-16.47-4.28l1.06 14.28s-3.58 3.25-7.52 8.75-5.35 9.13-5.35 9.13-1.52 10.96 2.13 21.41c1.82 5.2 5.39 5.38 5.39 5.38s10.45-1.04 14.66 2.13c2.58 1.95 2.96 5.14 2.85 7.31h205.3c-.17-2.17.04-5.62 2.79-7.69 4.21-3.17 14.69-2.12 14.69-2.12s3.54-.18 5.35-5.37c3.65-10.45 2.16-21.41 2.16-21.41s-1.45-3.63-5.39-9.12c-3.93-5.5-7.52-8.75-7.52-8.75l1.1-14.28s-9.26-.99-16.47 4.28c-3.54 2.59-1 10.41-.72 13.56-10.09 6.48-19.7 16.09-19.7 16.09h-21.45l-.19-10.72s9.89 1.8 16.63-5.53 4.65-13.06 4.67-19.84c.01-5.35-5.23-15 3.04-24.28 6.91-7.75 20.04-10.16 20.04-10.16s-15.49-22.24-20.23-34.47c8.78.3 9.49-2.69 9.49-2.69s-10.72.6-15.91-.53c-6.32-1.38-10.01-7.39-17.91-7.5-6.35-.09-6.58 0-6.58 0s-3.48-.36-5.14-2.92c-1.49-2.3-1.13-8.6 1.46-10.68 5.22-4.2 24.77.7 31.5-.33-5.95-3.85-9.87-2.02-19.19-9.63s-8.68-11.52-15.72-21.62c-7.74-11.11-8.58-9.3-14.19-10.2-6.61-2.93-3.27-10.35-3.27-10.35s9.7-2.43 20.04 5.02c8.72 6.28 17.18 13.36 26.84 17.84 7.33 3.4 15.03 2.88 15.03 2.88s-1.47-14.56-6.45-18.22c-3.08-2.26-7.49-.88-11.09-2.5-5.78-7.86-6.82-3.21-10.55-12.5 1.52-2.86 3.2-3.62 6.26-4.81 2.6-1.01 8.05-2.34 8.05-2.34s4.41-4.96 7.17-5.87c2.71-.9 15.03-1.25 15.03-1.25s6.06-7.31 7.33-6.25c5.54 4.62 27.37 48.92 37.92 74.81 8.1 19.88 14.96 38.72 19.35 61.44s4.44 38.55 3.38 40c-1.13 1.54-11.02-1.58-13.59 6.59-3.67 11.67 6.43 20.45 6.45 23.41s-3.49 3.77-10.4 18.03c-5.26 10.86-6.75 17.45-7.17 20h27.97V245.11z"/><path fill="#ddb523" stroke="#8c5700" d="M611.29 419.84h-12.73s-.16-11.38.98-12.77c1.59-5.98 12.77-13.34 20.32-20.57 7.55-7.22 16.89-19.34 16.89-19.34l-.49 13.96c-13.88 14.32-24.48 21.55-24.48 21.55zm105.09 0h12.73s.16-11.38-.98-12.77c-1.59-5.98-12.77-13.34-20.32-20.57-7.55-7.22-16.89-19.34-16.89-19.34l.49 13.96c13.88 14.32 24.48 21.55 24.48 21.55z"/><path fill="#fff" stroke="#767479" d="M692.58 264.78h5.24v26.74h-5.24z"/><path fill="#d23225" stroke="#4a0000" d="M694.52 249.87c-.08 0-.42 2.66-1.94 6.03-1.7 3.78 1.23 6.56 3.09 8.78.03-1.92.54-3.57 1.25-6.5.97-3.95-1.19-5.89-2.4-8.32z"/><path fill="#fff" stroke="#767479" d="M623.5 264.61h5.24v26.74h-5.24z"/><path fill="#d23225" stroke="#4a0000" d="M625.44 249.7c-.08 0-.42 2.66-1.94 6.03-1.7 3.78 1.23 6.56 3.09 8.78.03-1.92.54-3.57 1.25-6.5.97-3.95-1.19-5.89-2.4-8.32z"/><path fill="#fff" stroke="#767479" d="M658.25 263.13h5.24v26.74h-5.24z"/><g fill="#ddb523"><path stroke="#8c5700" d="M655.64 286.89c.35 6.66 3 10.66 3 10.66s-3.74 9.27-2.9 20.6h10.27c.05-13.93-2.56-20.77-2.56-20.77s2.48-4.29 2.66-10.48z"/><path stroke="#8c5700" d="M631.89 350.33s7-5.46 6.45-19.22c14.6-2.51 12.87-15.14 21.85-15.23 9.27-.1 10.18 11.47 22.93 15.24 1.08 13.7 8.96 19.22 8.96 19.22z"/><path d="M642.72 352.78h39.65v70.28h-39.65z"/><g stroke="#8c5700"><path d="M636.52 422.93V356.4h6.11v66.53zm44.94.01v-66.55h6.11v66.55z"/><path d="M662.85 372.33c-10.86.02-20.16 1.84-27.35 5.31l.41 7.26c6.11-3.21 14.58-5.75 26.22-5.78 10.66-.03 19.18 2.59 25.88 6.16v-8.19c-6.8-2.82-15.11-4.77-25.16-4.75zm-.23 21.22c-10.86.02-19.82 1.15-27 4.62l.06 7.95c6.11-3.21 14.58-5.75 26.22-5.78 10.66-.03 19.18 2.59 25.88 6.16v-8.19c-6.8-2.82-15.11-4.77-25.16-4.75z"/></g></g><path fill="#d9251c" stroke="#8c5700" d="M604.99 452.61h117.28s-20.43-39.78-60.72-39.42-56.56 39.42-56.56 39.42z"/><g fill="#ddb523"><path d="M604.89 454.87v71.84l58.78-67.56 58.81 67.56v-71.84l-58.81.31z"/><g stroke="#8c5700"><path d="M609.12 479.77s1.6 1.3 2.94 4.33c1.35 3.03-1.33 5.59 1.56 10.04s11.01 2.99 12.64-1.21.44-7.41-2.94-7.96-5.41 2.93-5.71 4.33c-.88-.06-.04-4.5-2.42-6.67s-6.06-2.86-6.06-2.86z"/><path d="M614.78 528.27H604.5s5.26-15.12 9.79-21.54c5.53-7.85 16.16-12.24 16.16-12.24s-.63-7.93 2.69-12.98c4.53-6.89 12.84-8.72 18.36-15.67 2.12-2.67 1.96-10.04 1.96-10.04h10.28v5.39s-.87 5.22-3.92 8.57c-4.9 5.39-16.17 13.03-19.1 18.61-3.39 6.45-2.69 13.47-2.69 13.47s-7.54-.61-15.67 7.83c-4.65 4.83-7.59 18.61-7.59 18.61zm97.94 0H723s-5.26-15.12-9.79-21.54c-5.53-7.85-16.16-12.24-16.16-12.24s.63-7.93-2.69-12.98c-4.53-6.89-12.84-8.72-18.36-15.67-2.12-2.67-1.96-10.04-1.96-10.04h-10.28v5.39s.87 5.22 3.92 8.57c4.9 5.39 16.17 13.03 19.1 18.61 3.39 6.45 2.69 13.47 2.69 13.47s7.54-.61 15.67 7.83c4.65 4.83 7.59 18.61 7.59 18.61z"/><path d="M606.39 452.59h115.4v5.16h-115.4z"/><path stroke-width="1.01" d="M601.46 419.79h6.79v108.23h-6.79z"/><path d="M719.67 479.54s-1.6 1.3-2.94 4.33c-1.35 3.03 1.33 5.59-1.56 10.04s-11.01 2.99-12.64-1.21-.44-7.41 2.94-7.96 5.41 2.93 5.71 4.33c.88-.06.04-4.5 2.42-6.67s6.06-2.86 6.06-2.86zm.35-59.63h6.62v108.11h-6.62zm-85.11 41.85s3.79.05 4.5 3.81-3.51 5.12-5.82 2.65c-2.64-2.83-5.13-9.39-14.61-8.36s-12.32 17.09-.69 18.7c8.34 1.15 7.96-6.41 7.96-6.41s-3.58 3.23-6.75 1.9-3.07-8.53 3.46-8.14 7.77 7.67 14.54 7.79 8.1-6.15 6.06-10.04-8.66-1.9-8.66-1.9z"/><path d="M693.86 462.1s-3.79.05-4.5 3.81 3.51 5.12 5.82 2.65c2.64-2.83 5.13-9.39 14.61-8.36s12.32 17.09.69 18.7c-8.34 1.15-7.96-6.41-7.96-6.41s3.58 3.23 6.75 1.9 3.07-8.53-3.46-8.14-7.77 7.67-14.54 7.79-8.1-6.15-6.06-10.04 8.66-1.9 8.66-1.9zm-103.5 65.94h154.85v16.87H590.36z"/><use href="#a" stroke-width="1.1" transform="matrix(.89 0 0 .93 403.05 83.62)"/></g></g><path fill="#8c5700" d="M670.26 535.12a2.02 1.84 0 1 1-4.04 0 2.02 1.84 0 1 1 4.04 0"/><g fill="#ddb523" stroke="#8c5700"><path d="M668.4 543.45c3.18-5.31 11.47-13.39 19.95-12.98 5.22-.06 7.34 3.47 6.98 6.98s-4.23 6.83-8.2 5.51-3.92-5.14-3.92-5.14 2.46 2.43 5.14 1.59 3.5-6.16-1.84-6c-5.74.17-13.1 6.55-18.12 10.04zm46.5.74c3.18-5.31 11.47-13.39 19.95-12.98 5.22-.06 7.34 3.47 6.98 6.98s-4.23 6.83-8.2 5.51-3.92-5.14-3.92-5.14 2.46 2.43 5.14 1.59 3.5-6.16-1.84-6c-5.74.17-13.1 6.55-18.12 10.04zm-46.6-.74c-3.18-5.31-11.46-13.39-19.95-12.98-5.22-.06-7.34 3.47-6.98 6.98s4.23 6.83 8.2 5.51 3.92-5.14 3.92-5.14-2.46 2.43-5.14 1.59-3.5-6.16 1.84-6c5.74.17 13.1 6.55 18.12 10.04z"/><path d="M691.65 544.19c3.18-5.31 11.47-13.39 19.95-12.98 5.22-.06 7.34 3.47 6.98 6.98s-4.23 6.83-8.2 5.51-3.92-5.14-3.92-5.14 2.46 2.43 5.14 1.59 3.5-6.16-1.84-6c-5.74.17-13.1 6.55-18.12 10.04zm-46.49 0c-3.18-5.31-11.46-13.39-19.95-12.98-5.22-.06-7.34 3.47-6.98 6.98s4.23 6.83 8.2 5.51 3.92-5.14 3.92-5.14-2.46 2.43-5.14 1.59-3.5-6.16 1.84-6c5.74.17 13.1 6.55 18.12 10.04z"/><path d="M621.53 544.19c-3.18-5.31-11.46-13.39-19.95-12.98-5.22-.06-7.34 3.47-6.98 6.98s4.23 6.83 8.2 5.51 3.92-5.14 3.92-5.14-2.46 2.43-5.14 1.59-3.5-6.16 1.84-6c5.74.17 13.1 6.55 18.12 10.04zm-49.41.86h191.12v16.4H572.12z"/><use href="#a" stroke-width="1.1" transform="matrix(.89 0 0 .93 403.05 100.15)"/></g><path fill="#8c5700" d="M670.26 551.65a2.02 1.84 0 1 1-4.04 0 2.02 1.84 0 1 1 4.04 0"/><g fill="#ddb523" stroke="#8c5700"><path d="M668.2 558.15c-3.04-4.56-10.93-11.5-19.03-11.14-4.97-.06-7 2.98-6.65 5.99s4.03 5.86 7.82 4.73 3.74-4.41 3.74-4.41-2.35 2.09-4.9 1.37-3.33-5.29 1.75-5.15c5.48.15 12.49 5.63 17.28 8.62z"/><path d="M646.32 559.1c-3.04-4.72-10.94-11.9-19.04-11.54-4.98-.06-7 3.08-6.66 6.2s4.04 6.07 7.83 4.9 3.74-4.57 3.74-4.57-2.35 2.16-4.91 1.42-3.34-5.48 1.75-5.33c5.48.15 12.5 5.83 17.29 8.93z"/><path d="M623.91 559.55c-3.02-5-10.87-12.63-18.92-12.24-4.95-.06-6.96 3.27-6.62 6.58s4.01 6.44 7.78 5.2 3.72-4.85 3.72-4.85-2.34 2.3-4.88 1.5-3.32-5.81 1.74-5.66c5.45.16 12.42 6.18 17.18 9.47z"/><path d="M601.26 559.13c-2.97-4.74-10.7-11.97-18.63-11.6-4.87-.06-6.85 3.1-6.52 6.24s3.95 6.1 7.66 4.92 3.66-4.6 3.66-4.6-2.3 2.17-4.8 1.42-3.26-5.5 1.71-5.36c5.36.15 12.23 5.86 16.92 8.97zm67.6-.98c3.04-4.56 10.93-11.5 19.03-11.14 4.97-.06 7 2.98 6.65 5.99s-4.03 5.86-7.82 4.73-3.74-4.41-3.74-4.41 2.35 2.09 4.9 1.37 3.33-5.29-1.75-5.15c-5.48.15-12.49 5.63-17.28 8.62z"/><path d="M690.74 559.1c3.04-4.72 10.94-11.9 19.04-11.54 4.98-.06 7 3.08 6.66 6.2s-4.04 6.07-7.83 4.9-3.74-4.57-3.74-4.57 2.35 2.16 4.91 1.42 3.34-5.48-1.75-5.33c-5.48.15-12.5 5.83-17.29 8.93z"/><path d="M713.16 559.55c3.02-5 10.87-12.63 18.92-12.24 4.95-.06 6.96 3.27 6.62 6.58s-4.01 6.44-7.78 5.2-3.71-4.85-3.71-4.85 2.34 2.3 4.88 1.5 3.32-5.81-1.74-5.66c-5.45.16-12.42 6.18-17.18 9.47z"/><path d="M735.8 559.13c2.97-4.74 10.71-11.97 18.63-11.6 4.87-.06 6.85 3.1 6.52 6.24s-3.95 6.1-7.66 4.92-3.66-4.6-3.66-4.6 2.3 2.17 4.8 1.42 3.26-5.5-1.71-5.36c-5.36.15-12.23 5.86-16.92 8.97zm-45.87-270.16c.52 4.75.95 8.79 2.81 9.28-.01 2.27-.6 6.82-6.59 7.02-7.4.25-10.52-5.15-15.93-5.2s-8.09 3-8.48 6.61 1.37 7.34 6.75 7.25 6.34-6.71 2.26-7.79c-1.36-.36 1.2 3.41-2.42 3.8-3.78.42-4.3-6.19 1.9-6.06s10.91 5.72 17.47 4.5c7.13-1.32 8.62-6.69 9.46-10.13 1.86-.49 2.67-4.53 3.01-9.28z"/></g><path fill="#d23225" stroke="#4a0000" d="M660.18 248.22c-.08 0-.42 2.66-1.94 6.03-1.7 3.78 1.23 6.56 3.09 8.78.03-1.92.54-3.57 1.25-6.5.97-3.95-1.19-5.89-2.4-8.32z"/><g fill="#ddb523" stroke="#8c5700"><path d="M644.78 341.15s9.59 7.34 16.66 7.44 17.02-7.1 17.02-7.1-4.88-7.02-7.52-10.39c-3.18-4.05-4.77-11.91-10.03-11.77-5.04.13-6.03 7.81-8.96 11.77-2.44 3.31-7.16 10.04-7.16 10.04z"/><path d="M639.23 350.75s5.02-5.83 5.02-16.1c3.14-.1 4.32-.21 6.99 0 .49 10.21-3.22 16.1-3.22 16.1zm44.17 0s-5.02-5.83-5.02-16.1c-3.14-.1-4.32-.21-6.99 0-.49 10.21 3.22 16.1 3.22 16.1zm-24.71-24.72v15.03c.51 2.82 4.99 2.75 5.31 0l.13-15.03c-.76-2.26-4.61-2.39-5.44 0z"/><path d="M638.15 331.03h45.28v4.76h-45.28z"/><path stroke-width="1.05" d="M631.26 350.29h61.5v6.34h-61.5z"/><path stroke-width="1.04" d="M631.29 422.93v-71.79H638v71.79zm54.63 0v-72.09h6.71v72.09z"/><path d="M735.07 279.65a5.81 5.81 0 0 0-4.84 9.03l-9.09 12.94-5.69-4.09q.17-.69.16-1.44a5.79 5.79 0 1 0-11.59 0c0 3.2 2.61 5.81 5.81 5.81 1.11 0 2.12-.33 3-.87l5.84 4.13-87.78 125.03 2.95 2.17 88.21-124.83 6.59 4.66q-.16.68-.16 1.41a5.79 5.79 0 1 0 11.59 0 5.82 5.82 0 0 0-9-4.84l-6.56-4.69 9.31-12.94q.61.15 1.25.16a5.81 5.81 0 0 0 0-11.62z"/><path d="M587.76 275.37a4.02 4.02 0 1 0 0 8.06q.15 0 .28-.03l5.03 7.25-5.41 3.69a4.05 4.05 0 0 0-5.65 3.72 4.05 4.05 0 0 0 8.09 0q0-.16-.03-.31l5.38-3.69 7 10.09a5 5 0 0 0 .28 3.84c.92 1.89 2.74 3 4.44 2.91l2.03 2.91c-.42 1.89.06 4.51 1.47 7 1.88 3.34 4.79 5.36 7 5.06l1.97 2.81v.03a5.5 5.5 0 0 0 .84 4.06 5.2 5.2 0 0 0 3.78 2.53l15.88 22.69c.36 2.34 2.01 5.95 4.59 9.63 2.57 3.65 5.37 6.45 7.47 7.63l1.78 2.53c-.05 1.05.09 2.81.97 4.06 1.09 1.55 2.59 2.79 4.09 3.16l16.13 23.03.03.06c5.18 7.76 15.47 23.25 15.47 23.25l2.65-2.03s-20.62-31.37-31.18-46.25a6.2 6.2 0 0 0-1.16-4.56c-1.01-1.32-2.43-2.79-4.16-3.03l-1.5-2.12v-.03c-.32-2.33-2.03-5.99-4.66-9.72-2.56-3.63-5.37-6.41-7.47-7.59l-15.97-22.78a5.4 5.4 0 0 0-.81-4.25c-1.02-1.59-2.56-2.53-3.97-2.56l-2.22-3.16c.45-1.89-.01-4.51-1.44-7.03-1.9-3.36-4.82-5.38-7.03-5.06l-1.62-2.34a5 5 0 0 0-.22-4.09 5 5 0 0 0-4.03-2.94l-7.03-10.06 5.13-3.5q.71.3 1.53.31a4.05 4.05 0 1 0-4.03-4.03q0 .2.03.41l-5 3.41-5.06-7.25q.34-.76.34-1.66c0-2.23-1.8-4.03-4.03-4.03zm43.65 13.6c-.52 4.75-.95 8.79-2.81 9.28.01 2.27.6 6.82 6.59 7.02 7.4.25 10.52-5.15 15.93-5.2s8.09 3 8.48 6.61-1.37 7.34-6.75 7.25-6.34-6.71-2.26-7.79c1.36-.36-1.2 3.41 2.42 3.8 3.78.42 4.3-6.19-1.9-6.06s-10.91 5.72-17.47 4.5c-7.13-1.32-8.62-6.69-9.46-10.13-1.86-.49-2.67-4.53-3.01-9.28z"/></g><path fill="#056a9e" d="M501.22 565.28v31.84s-.69 12.97 9.34 21.91 25.91 8.22 25.91 8.22h98.69s14.08-.11 22.78 9.56c6.88 7.64 8.66 13.84 9.13 16.13v1l.09-.5.09.5v-1c.46-2.29 2.28-8.48 9.16-16.12 8.7-9.67 22.78-9.56 22.78-9.56h98.69s15.87.72 25.91-8.22 9.34-21.91 9.34-21.91v-31.84H667.06zm106.22 4.84 8 9.65c6.46-.09 11.72.38 14.72.79 11.58 1.57 12.52 4.31 17.44 5.5 4.38 1.06 8.56 1.47 8.56 1.47s-5.33 4.06-8.31 5.38-9.31 2.44-9.31 2.44 6.43.19 8.56 1 4.16 2.94 4.16 2.94-5.08.52-7.59.97c-8.32 1.48-16.11 5.41-24.72 5.63-3.61.09-8.05.2-12.72.28-.97 1.05-2.32 2.49-2.5 3.97s1.75 4.69 1.75 4.69-9.28 1.44-14.22 1.38-15.22-1.91-15.22-1.91l4.34-8.12c-.85-.02-1.73-.01-2.56-.03a379 379 0 0 1-19.56-1.22l-3.94 7.34-15.19-2.22 2.88-6.44c-6.13-.46-10.43-.82-13.41-.41s-6 2.49-8.81 4.41-8.31 7.09-8.31 7.09-.57-6.74 1.22-10.03 6.13-5.87 6.13-5.87-3.71-3.04-5.41-5.87-4.41-11.25-4.41-11.25 14.71 8.25 22.53 8.31a75 75 0 0 0 13.75-1.34l-5.41-5.75 18.59-8.81 6.72 10.52c6.47-.99 12.11-2.11 18.03-2.58l-5.41-9.91zm108.44 0 28.94 1.97-5.11 9.56c4.03.76 13.69 2.65 17.1 3.1l6.91-10.69 18.16 8.81-5.28 5.75c4.53.84 9.04 1.38 13.44 1.34 7.64-.07 22-8.31 22-8.31s-2.63 8.41-4.28 11.25-5.28 5.88-5.28 5.88 4.22 2.58 5.97 5.88 1.19 10.03 1.19 10.03-5.15-5.08-8.12-7.09c-2.68-1.81-5.02-3.9-8.59-4.41-2.24-.32-7.1-.05-13.09.41l2.81 6.44-14.84 2.22-3.84-7.34c-6.73.56-13.53 1.07-19.12 1.22-.81.02-1.67.01-2.5.03l4.25 8.13s-10.05 1.84-14.87 1.91-13.87-1.37-13.87-1.37 1.9-3.21 1.72-4.69c-.18-1.47-1.52-2.92-2.47-3.97-4.56-.08-8.88-.19-12.41-.28-8.41-.22-16.03-4.14-24.16-5.62-2.45-.45-7.41-.97-7.41-.97s1.98-2.12 4.06-2.94c2.09-.81 8.34-1 8.34-1s-6.18-1.12-9.09-2.44-8.09-5.37-8.09-5.37 4.06-.41 8.34-1.47c4.8-1.19 5.75-3.93 17.06-5.5 2.93-.41 8.38-.87 14.69-.79z"/><path fill="#e6e6e6" d="M616.22 581.28a386 386 0 0 0-31.53 2.03c-14.16 1.43-42.56 7.88-51.25 7.94-5.12.03-9.96-1.47-13.34-2.75-3.07-1.16-8.81-4.34-8.81-4.34s1.59 5.4 3.63 8.5 4.76 4.55 5.94 6.22c-1.57 1.24-2.13.91-5.28 4.03s-2.91 9.09-2.91 9.09 3.25-3.38 6.41-5.56 6.45-4.18 9.88-4.59 39.89 2.84 52.28 2.94 34.97.2 40.16-.53c6.87-.96 13.41-3.75 20.25-5.03 2.23-.42 6.75-.84 6.75-.84s-.87-.78-3.62-1.41-9.2.29-10.22-1.22c1.54-2.07 7.19-2.18 10.91-3.44s7.28-3.81 7.28-3.81-3.94-.7-5.87-1.22c-5.34-1.43-6.28-3.43-15.78-5.19-3.56-.66-8.83-.89-14.84-.81zm10.92.37c1.05.95-7.41 5.51-7.74 12.51-.25 5.15 6.16 9.14 5.11 9.83s-7.24-4.38-6.89-9.73c.48-7.33 8.48-13.56 9.52-12.61m-7.98.79c.94 1.02-7.29 5.01-8.06 11.47-.76 6.42 5.2 9.21 4.19 10.16s-6.59-4.45-6.09-9.66c.68-7.05 9.02-12.99 9.97-11.97zm14.09 3.81c1.48 0 2.69 1.05 2.69 2.34s-1.21 2.31-2.69 2.31-2.69-1.02-2.69-2.31 1.21-2.34 2.69-2.34m-31.19 2.5 4.31 7.53-8.62.25zm-8.66.75 3.78 7-7.56.22zm-8.12.59 3.47 6.59-6.94.03zm-8.16.84 3.59 5.97-7.16.19zm-7.91.66 3.25 5.53-6.75.09zm-8.22.69 2.91 4.97-6 .19zm-8.09.75 2.88 4.41-5.78.19zm-8.09.63 2.84 3.97-5.91.22zm-7.75.72 2.25 3.47-4.66.16zm170.42-13.16c9.78.13 21.52 1.07 30.77 2.03 13.82 1.43 41.53 7.88 50.01 7.94 5 .03 9.72-1.47 13.02-2.75 2.99-1.16 8.6-4.34 8.6-4.34s-1.55 5.4-3.54 8.5-4.65 4.55-5.79 6.22c1.53 1.24 2.08.91 5.15 4.03s2.84 9.09 2.84 9.09-3.17-3.38-6.25-5.56c-3.08-2.19-6.3-4.18-9.64-4.59s-38.92 2.84-51.01 2.94-34.12.2-39.18-.53c-6.7-.96-13.09-3.75-19.76-5.03-2.18-.42-6.59-.84-6.59-.84s.85-.78 3.54-1.41 8.98.29 9.97-1.22c-1.51-2.07-7.02-2.18-10.64-3.44s-7.1-3.81-7.1-3.81 3.84-.7 5.73-1.22c5.21-1.43 6.13-3.43 15.4-5.19 3.48-.66 8.62-.89 14.48-.81zm-10.65.37c-1.02.95 7.23 5.51 7.55 12.51.24 5.15-6.01 9.14-4.99 9.83s7.07-4.38 6.73-9.73c-.47-7.33-8.27-13.56-9.29-12.61m7.79.79c-.92 1.02 7.12 5.01 7.87 11.47.74 6.42-5.07 9.21-4.09 10.16s6.43-4.45 5.95-9.66c-.66-7.05-8.81-12.99-9.73-11.97m-13.75 3.81c-1.45 0-2.62 1.05-2.62 2.34s1.18 2.31 2.62 2.31 2.62-1.02 2.62-2.31-1.18-2.34-2.62-2.34m30.43 2.5-4.21 7.53 8.42.25zm8.45.75-3.69 7 7.38.22zm7.93.59-3.38 6.59 6.77.03zm7.96.84-3.51 5.97 6.98.19zm7.71.66-3.17 5.53 6.59.09zm8.02.69-2.84 4.97 5.85.19zm7.9.75-2.81 4.41 5.64.19zm7.9.63-2.77 3.97 5.76.22zm7.56.72-2.2 3.47 4.54.16z"/><path d="M604.37 411.4c-2.48-.16-4.04 4.86-12.12 5.14 0 0-.87-9.96-.87-15.66 7.35.19 20.18-4.83 25.8 1.71 2.68 3.12 2.9 11.25-1.04 12.3-8.26 2.21-9.29-3.33-11.77-3.49m118.74-.8c2.49.03 3.33 5.31 11.71 6.01 0 0 1.14-10.78 1.55-16.46-7.34-.34-19.5-5.77-25.4.73-2.7 2.98-3.71 11.01.14 12.35 8.07 2.81 9.51-2.65 12-2.62z"/></svg>
