<svg xmlns="http://www.w3.org/2000/svg" viewBox="0 0 600 400"><defs><path id="k" d="m389.92 276.93.01-185.6H208.84v185.6c0 5.65 2.3 10.78 6.01 14.5a20.4 20.4 0 0 0 14.49 6h52.59a19.3 19.3 0 0 1 16.77 10.52 19.4 19.4 0 0 1 16.71-10.52h54.03c5.65 0 10.78-2.3 14.49-6a20.4 20.4 0 0 0 6.01-14.5z"/><path id="l" d="m358.86 191.6-17.21-7.61-17.22 7.6 1.92-18.72-12.56-14.02 18.4-3.96 9.45-16.27 9.46 16.27 18.39 3.97-12.55 14.01z"/></defs><defs><linearGradient id="b" x1="519.09" x2="536.67" y1="256.77" y2="262.43" gradientTransform="translate(-259.47 51.93)" gradientUnits="userSpaceOnUse" href="#a"/><linearGradient id="c" x1="546.1" x2="561.46" y1="224.85" y2="224.85" gradientTransform="translate(-259.47 51.93)" gradientUnits="userSpaceOnUse" href="#a"/><linearGradient id="d" x1="575.97" x2="598.07" y1="183.29" y2="186.81" gradientTransform="translate(-259.47 51.93)" gradientUnits="userSpaceOnUse"><stop offset="0" stop-color="#a80"/><stop offset="1" stop-color="#d4aa00" stop-opacity="0"/></linearGradient><linearGradient id="e" x1="588" x2="599.49" y1="222.87" y2="245.29" gradientTransform="translate(-259.47 51.93)" gradientUnits="userSpaceOnUse"><stop offset="0" stop-color="#a80"/><stop offset="1" stop-color="#d4aa00" stop-opacity="0"/></linearGradient><linearGradient id="g" x1="529.02" x2="526.49" y1="307" y2="326.06" gradientTransform="translate(-259.47 51.93)" gradientUnits="userSpaceOnUse" href="#a"/><linearGradient id="h" x1="556.88" x2="561.99" y1="273.82" y2="295.46" gradientTransform="translate(-259.47 51.93)" gradientUnits="userSpaceOnUse" href="#a"/><linearGradient id="i" x1="517.58" x2="517.58" y1="10.21" y2="-27.38" gradientTransform="translate(-259.47 51.93)" gradientUnits="userSpaceOnUse"><stop offset="0" stop-color="#a00"/><stop offset=".25" stop-color="#d40000"/><stop offset=".72" stop-color="#d40000"/><stop offset="1" stop-color="red"/></linearGradient><linearGradient id="a"><stop offset="0" stop-color="#a80"/><stop offset="1" stop-color="#a80" stop-opacity="0"/></linearGradient><radialGradient id="j" cx="710.2" cy="106.48" r="55.72" gradientTransform="matrix(1.25 0 0 1.19 -615.52 31.71)" gradientUnits="userSpaceOnUse"><stop offset="0" stop-color="#a80"/><stop offset="1" stop-color="#a80" stop-opacity="0"/></radialGradient></defs><path fill="#d40000" d="M0 0h600v400H0z"/><g fill-rule="evenodd"><path fill="#ffd500" stroke="#d4a900" stroke-width=".75" d="M391.78 276.93a22.36 22.36 0 0 1-22.36 22.36h-53.93a17.5 17.5 0 0 0-16.8 14.44 17.46 17.46 0 0 0-16.8-14.44h-52.56a22.36 22.36 0 0 1-22.35-22.36V89.48h184.79v187.45z"/><use href="#k" fill="#007ccc"/><path fill="#fff" d="m389.92 276.93.01-185.6H208.84l175.77 199.36a20.4 20.4 0 0 0 5.32-13.76z"/><path fill="gray" d="M247.23 160.03c-1.7.03-4.78.74-5.26 1.33-.26.32-.57.34-1.14.12-.99-.37-1.36-.14-1.36.79 0 1.27.62 1.5 3.34 1.16 1.36-.17 2.95-.42 3.49-.54l1.02-.2v1.62c0 1.61-.68 3.88-1.16 3.74-.6-.17-2.3.39-2.27.76 0 .23.29.77.6 1.19.34.43.62 1.08.62 1.45s.31 1.05.68 1.53c.32.45.23 1.04.63 1.27-.6 15.86-.51 31.72-.49 47.56-.42-.06-.42.14-.48.45 0 .34-.14.62-.31.62s-.54.8-.82 1.76c-.48 1.64-1.7 3.57-1.7 2.69 0-.45-2.32-.51-3.17-.05q-1.22.69.14 3.28c.43.79.68 1.45.54 1.45-.11 0-.22.36-.28.79a11 11 0 0 1-.85 2.52 8 8 0 0 0-.8 3.28c0 1.27-.08 1.53-.47 1.36-.26-.08-.77-.71-1.11-1.36-.45-.93-.73-1.16-1.22-1.02-.36.09-.65.28-.65.45s-.25.66-.6 1.08a5 5 0 0 0-.81 1.99c-.12.68-.4 1.3-.65 1.41-.26.09-.46.46-.46.8 0 .9-.93 3.54-1.44 4.13-.31.37-.46 1.25-.43 3 .06 3.14-.53 4.84-1.38 4-.43-.42-1.16-.34-1.42.17a14 14 0 0 0-.65 2.89 99 99 0 0 1-.85 4.39 37 37 0 0 0-.62 4.9c-.06 1.56-.2 3.11-.29 3.45-.05.34-.03.8.09.96.3.49 1.33.43 1.33-.08 0-.68.85-.46 1.1.28.11.4.26 1.31.28 2.01.06 1.62.68 2.44 1.65 2.18.39-.08.79-.03.9.14.12.17.46.31.8.31.39 0 .82.57 1.39 1.79.7 1.56.9 1.76 1.58 1.62a1.7 1.7 0 0 1 1.42.39c.54.46.88.48 2.29.2 2.13-.4 7.2-.52 7.7-.15.2.17.52.23.66.14a8 8 0 0 1 2.12-.36l2.58-.32c.37-.05 1.7.06 2.95.23 1.44.23 2.29.23 2.43.03.2-.3 1.62-.28 7.9.09 4.45.22 5.1.22 6.32.03 3.32-.54 3.46-.54 3.77.28.17.48.28.67.79.71h.62q.34 0 .85-.06c1.39-.1 2.1-.34 2.38-.7.2-.31.4-.43.4-.31 0 .14.17.11.39-.09.23-.17 1.56-.34 2.92-.37a13 13 0 0 0 3.34-.39c.96-.4 1.73-2.27 1.36-3.35a14 14 0 0 1-.26-2.58c-.06-2.06.09-1.89-2.8-3.45-.82-.46-1.39-.94-1.25-1.08q.15-.2-.17-.03c-.56.31-2.57-.45-2.74-1.08-.2-.62 0-2.52.42-3.9.17-.54.39-1.64.5-2.44.09-.82.31-1.58.48-1.67.15-.09.38-.82.49-1.59.12-.79.37-1.38.54-1.33.34.12 2.44-1.78 2.44-2.23 0-.43-1.47-1.31-2.16-1.31-.31 0-.68-.08-.79-.2-.11-.14-.68-.28-1.24-.31-1.02-.08-4.99-.36-5.92-.4-.26-.03-.68-.39-.91-.85-.34-.59-.6-.73-1.16-.62-.4.12-.73.06-.73-.08 0-.17-.63-.46-1.42-.66-1.27-.3-1.58-.59-1.44-1.38.03-.14-.09-.17-.23-.08-.37.22-1-1.2-1.02-2.27 0-.48-.26-1.22-.6-1.64s-.62-.99-.62-1.27c0-.26-.17-.62-.34-.8a6 6 0 0 1-.62-2.01c-.42-2.18-.71-2.52-2.06-2.3-.85.15-1.08.07-1.08-.33 0-.26-.29-.57-.65-.68s-.82-.66-1.08-1.22a28 28 0 0 1-1.33-3.94 6 6 0 0 0-1.25-1.87 6 6 0 0 1-1.21-1.78c-.48-1.67-1.5-3.37-2.18-3.68-.63-.29-.74-.51-.6-1.08.12-.46.06-.77-.14-.77-.23 0-.48-.28-.68-.62 0-16.03-.23-31.95-.85-47.67l.03-.08c.2-.26.26-.4.4-.48.23-.14.42-.6.42-1 0-.39.29-1.04.62-1.44.8-.9.8-1.13 0-1.64-.65-.4-.85-1.76-.34-2.3.48-.53.48-1.5-.08-2.77-.29-.65-.46-1.33-.37-1.45.17-.28 1.33-.08 1.9.28.17.12 1.3.2 2.52.2 1.95-.03 2.2-.08 2.26-.65.06-.45-.23-.79-1.04-1.19-.6-.31-1.25-.48-1.4-.4-.13.09-.39-.05-.61-.28-.23-.31-.68-.4-1.25-.29a9 9 0 0 1-2.72-.22c-1.02-.2-2.15-.34-2.49-.31-.99.08-1.47.06-2.77-.14a4 4 0 0 0-.63-.06zm3.52 3.2.64.74c.37.42.68.96.71 1.19 0 .25.06.68.06.99.03.28-.2.6-.5.65-.51.09-.68-.08-.57-.68.03-.14-.11-.48-.28-.71-.23-.22-.26-.45-.06-.56.17-.11.23-.51.17-.91z"/><path fill="#fff" d="M277.54 277.01c.17 0 .31.14.31.31s-.14.31-.31.31a.3.3 0 0 1-.31-.31c0-.17.14-.31.31-.31m-31.47-.08q.17-.04.17.39c0 .71-.06.77-.34.28a.5.5 0 0 1 .08-.62q.05-.05.09-.06m18.72-.88c.25 0 .48.14.48.34 0 .17-.17.3-.34.3s-.25.12-.17.26c.09.14-.05.26-.3.26q-.44-.01-.29-.46c.08-.22.14-.51.14-.56 0-.09.22-.14.48-.14m3.68-.6q.36 0 .97.26c.51.2.51.23-.12.62-.37.23-.56.25-.45.06.11-.17 0-.34-.29-.34-.25 0-.48-.14-.48-.31q-.01-.25.37-.29m9.26-.65c.06 0 .12.2.12.48 0 .26-.14.46-.29.46-.17 0-.25-.2-.14-.46.09-.28.23-.48.31-.48m-22.4 0c.26 0 .54.14.65.31.12.17-.08.31-.45.31s-.66-.14-.66-.31.2-.31.46-.31m-21.38 0c.06 0 .23.14.31.31.11.17.06.31-.11.31-.2 0-.34-.14-.34-.31s.06-.31.14-.31m18.95-.08h.2c.3 0 .53.08.53.28 0 .23-.25.43-.56.43q-.64-.01-.12.28c.31.2.26.31-.23.43-.73.19-1.38-.37-1.04-.91.2-.28.76-.48 1.22-.51m-3.26-.09c.14 0 .34.06.51.17.25.14.4.34.31.46-.09.08-.37.03-.63-.14-.22-.14-.36-.37-.28-.46q.04 0 .09-.03m-12.27-.06q.08.04.46.46c.48.56.85.68 1.56.54.51-.12 1.02-.06 1.13.08.09.17-.23.51-.68.79-.96.54-2.26.26-2.26-.51 0-.25-.09-.71-.2-1.02-.05-.25-.08-.37 0-.34zm6.83-.03c.31.03.62.31.62.74 0 .59-.45.59-.93.03q-.38-.45-.03-.65c.08-.09.23-.12.34-.12m30.73-.06c-.25 0-.62.2-.85.46-.3.39-.3.48.09.48.25 0 .65-.2.85-.48.31-.37.31-.46-.09-.46m-26.22-.28q.07.02.22.2c.23.19.31.45.23.56-.08.09-.28-.08-.39-.4q-.16-.41-.06-.36m7.42-.03c.17 0 .34.14.34.31s-.06.32-.14.32-.23-.14-.34-.32-.06-.31.14-.31m-20.42 0c.11 0 .31.2.42.46.09.28 0 .48-.25.48-.23 0-.4-.2-.4-.48 0-.26.12-.46.23-.46m50.44-1.53q.04 0 .09.03c.08.12.11.37.03.6q-.16.37-.2-.17 0-.4.09-.46zm-2.12-.54c.88.03 1.67.12 1.58.31-.05.17.09.97.31 1.7.34 1.16.31 1.47-.03 1.82-.5.5-.48.5-1.19.08a1.2 1.2 0 0 1-.56-.93c0-.34-.12-.57-.26-.51-.37.11-2.07-1.96-1.81-2.21.2-.2 1.1-.26 1.95-.26zm-19.38-.76c-.34 0-.25.19.31.76.8.79 1.56 1.02 1.56.51 0-.4-1.27-1.27-1.87-1.27m-7.73 0c-.42 0-.76.1-.76.22 0 .14.34.29.76.34.46.03.8-.08.8-.25s-.35-.31-.8-.31m19.97-.66c-.46 0-.88 1.36-.71 2.27.17.85.91 1.07 1.19.3.25-.59-.14-2.57-.49-2.57zm-27.48-.93a.5.5 0 0 0-.5.5c0 .55.67.46.87-.13.06-.2-.11-.37-.37-.37m.86-.26q-.09-.01-.09.46c0 .34.09.73.2.85.37.39.42 0 .14-.77a3 3 0 0 0-.26-.54zm26.65-.06c-.17 0-.31.15-.31.34 0 .17.14.23.31.14.17-.11.31-.25.31-.34 0-.08-.14-.14-.3-.14zm-33.7 0c-.43 0-.34.88.11 1.05.2.06.51.06.65 0 .29-.17-.37-1.05-.76-1.05m12.74-.31c-.56 0-1.27 1.67-.76 1.84.17.06.34.34.34.62 0 .8.48-.14.71-1.44.17-.8.08-1.02-.29-1.02m-16.94-.2c-.25 0-.39.09-.3.23.16.31-1.62 1.27-1.88.99q-.17-.1-.19.34c0 .43.14.46.79.2.45-.17.96-.23 1.1-.14.17.11.2-.03.12-.31q-.2-.48.2-.4c.22.03.45-.14.53-.42.06-.28-.11-.48-.37-.48zm8.25-.05c-.14.03-.26.19-.26.42 0 .29.14.46.31.4.49-.14.54-.65.09-.8q-.04-.03-.09-.02zm7.13-.54c-.3.05-.48.34-.25.59.28.29.68.26.88-.08.08-.17-.03-.37-.29-.46q-.19-.06-.34-.05m8.33-1.11c-.17 0-.22.14-.14.31.12.17.26.32.34.32s.14-.15.14-.32-.14-.31-.34-.31m8.87-.25q.16-.03.34.05.38.15-.17.17c-.34.03-.54-.05-.43-.14q.09-.08.26-.08m-27.59-.12c-.14 0-.31.14-.4.37-.05.17.14.3.43.3s.45-.16.4-.39q-.16-.31-.43-.28m22.63-.14-.29.03c-.34.06-.76.14-.93.14-.17.03-.09.17.17.34.56.4.96.4 1.53.06.45-.31.17-.6-.48-.57m-30.08-.56c-.51 0-.96.11-1.25.36-.42.37-.65.4-.99.14-.23-.2-.5-.28-.62-.17-.2.2-2.44.74-3.51.85-.85.09-1.47.51-1.25.88.2.31 5.93.12 6.46-.22.17-.09.54.05.82.34.48.48.57.48 1.25-.34.42-.46.73-.97.73-1.11 0-.48-.85-.73-1.64-.73m17.81-.49c-.05 0-.11.2-.11.46 0 .28.14.48.31.48s.23-.2.11-.48c-.08-.26-.23-.46-.3-.46m3.69-.2c-.26.04-.57.04-.91.09-1.45.17-1.64.29-1.64.94 0 .82.48 1.21 1.02.85.2-.12.76-.29 1.24-.31.94-.12 1.53.56 1.53 1.75 0 .82.62.85.85.06.09-.34.57-.8 1.05-1 .51-.2.93-.48.93-.59s-.76-.6-1.67-1.04c-1.07-.54-1.61-.74-2.4-.74zm-9.97-.02-.11.05c-.17.12-.32.26-.32.34s.15.14.32.14.31-.17.31-.34q-.02-.2-.2-.2m5.01-.09c-.96 0-1.98.63-1.98 1.19 0 .23.25.26.88.03.51-.17 1.1-.28 1.33-.23s.48-.14.54-.45c.08-.43-.09-.54-.77-.54m-6.68-.03a.3.3 0 0 0-.2.12c-.11.08-.09.34.06.56.2.34.25.31.36 0 .12-.34-.03-.65-.22-.68m25.57-.99q.19.06.29.88c.2 1.53.08 1.67-.31.51-.2-.51-.23-1.1-.09-1.3.03-.09.09-.09.11-.09m7.25-1.36h.06c.12.03.17.14.26.31.08.26.03.48-.17.48-.17 0-.26.23-.15.49.09.25.15.45.12.42-.99-.34-1.17-.91-.43-1.5a1 1 0 0 1 .31-.2m-21.21-.45a.3.3 0 0 0-.31.3c0 .18.14.32.31.32s.31-.14.31-.31a.3.3 0 0 0-.31-.31m-5.67 0c-.25 0-.62.76-.62 1.27 0 .34.11.34.74.11.45-.17.37-1.38-.12-1.38m26.77-1.6c.17 0 .2.24.11.49-.11.26-.31.46-.45.46s-.2-.2-.12-.46c.12-.25.31-.48.46-.48m-48.83-4.55q-.18.05-.17.3c0 .26.11.49.25.49s.29-.14.29-.31c0-.14-.14-.37-.29-.46q-.04-.04-.08-.03zm44.21-.68q-.04 0-.11.06c-.17.08-.31.25-.31.34 0 .05.14.11.31.11s.31-.14.31-.31q-.01-.23-.2-.2m-31.6-.46c-.63 0-1.08 2.89-.66 4.14.29.82.26.93-.28.93-.74 0-.82.49-.14.74.25.11.48.42.48.7 0 .35.17.43.48.32.28-.11.65-.2.8-.2s.28-.37.28-.8c0-.45.23-1.21.51-1.75.25-.53.42-1.16.31-1.41-.08-.26-.06-.4.11-.29.15.09.43-.05.66-.31q.39-.46.03-.45c-.2 0-.34-.29-.34-.6q0-.6-.88-.76c-.49-.06-1.08-.2-1.3-.26zm27.5-.48c-.2.03-.12.51.28.99q.87.95.88-.23c0-.36-.08-.6-.19-.48s-.4.06-.62-.11q-.2-.19-.34-.17zm-16.91-.34c.42-.03 1.08.51 1.08.96-.03.2-.23.09-.51-.28-.45-.6-.45-.6-.31.25.17.97.14 1.02-.37.48-.48-.45-.51-1.1-.05-1.36zm-12.12-.06q-.15 0-.26.09c-.08.1.09.17.43.17q.53-.04.2-.2zm-5.21-.54q-.13 0-.26.06c-.45.17-.45.25-.03.9.42.66.42.74-.17.89-.5.14-.65.03-.65-.46 0-.45-.14-.56-.5-.45-.26.11-.69.19-.94.19s-.46.29-.46.62a5 5 0 0 1-.79 1.93c-.77 1.19-.85 1.25-1.36.79q-.99-.9-.99-.17c0 .17-.2.54-.46.82-.28.26-.39.6-.28.77.08.17-.03.56-.29.85-.25.28-.42.96-.39 1.47.11 1.47.2 1.61.48.88.17-.4.65-.85 1.08-1.02 1.16-.46 3.06-.12 3.57.62.22.34.68.62.99.62s.76.23.99.48c.23.29.48.37.6.17s.36-.2.65-.03c.25.17.56.32.71.32.42 0 .23-1.48-.26-1.87-.25-.23-.36-.57-.22-.77.11-.2.25-.56.28-.82.37-3.23.4-4.08.11-4.24-.17-.12-.3-.6-.3-1.08 0-.91-.52-1.53-1.11-1.47m29.74-.45c.17 0 .31.14.31.3 0 .18-.14.38-.31.49s-.31-.03-.31-.28c0-.28.14-.51.31-.51m15.32-.17.23.05c.28.12.43.34.31.51q-.17.3.43.11c.36-.11.73-.05.85.12.11.19 0 .34-.26.34a.7.7 0 0 0-.62.45c-.23.57-.8.62-1.47.17-.4-.28-.4-.36.11-.76.32-.26.51-.6.4-.8q-.14-.18.03-.2zm-.9-.03q.41 0 .03.23c-.54.37-.83.37-1.03.06-.08-.12.23-.26.66-.29zm-4.17-.11h.71q.72 0 .51.39-.3.47.2 0 .95-.94 1.52.54c.51 1.16.34 2.66-.2 2.07a2 2 0 0 1-.3-1.31c.05-.71-.06-.88-.49-.82-.3.06-.88-.11-1.27-.4zm-31.95-.62c-.4 0-.68.5-.43.73.34.37.71.23.71-.25 0-.26-.11-.48-.28-.48m28.63-.94c.17 0 .31.29.31.62 0 .34-.05.63-.14.63-.06 0-.17-.29-.28-.63-.09-.34-.03-.62.11-.62m-2.86-.31c-.17 0-.3.29-.3.62 0 .34.13.63.3.63.2 0 .34-.29.34-.63s-.14-.62-.34-.62m-20.81-.93q-.05-.01-.26.28c-.17.29-.3.6-.3.74s.13.17.3.06.31-.43.31-.74q.01-.34-.05-.34m-16.66-.03c.14 0 .26.23.26.48 0 .54-.03.57-.34.26-.29-.28-.26-.74.08-.74m36.06-.26q.11 0 .54.12c2.38.76 2.94 1.05 2.89 1.53-.03.28.08.5.25.5.14 0 .26.29.26.63 0 .74 1.38 1.73 1.92 1.39.29-.14.34-.03.2.45-.09.37.03.82.25.99.51.43.82 1.59.43 1.59-.14 0-.29-.14-.29-.31q-.02-.32-.34-.34c-.17 0-.23.14-.14.28.09.17-.03.46-.25.65-.29.23-.51.26-.57.06-.05-.17-.53-.4-1.04-.54-.94-.2-.94-.2-.31.4.48.45.65.96.62 2.23 0 .91-.12 1.65-.29 1.65-.14 0-.19.25-.1.59.08.31 0 .79-.2 1.08-.35.45-.43.42-.77-.11-.23-.37-.6-.54-.94-.43-.5.17-.5.17 0-.17.31-.2.68-.31.8-.22.14.08.28-.2.31-.6.05-.42.11-1.13.17-1.56.03-.42.17-.79.31-.79.51 0 .2-.54-1.02-1.81-.71-.74-1.5-1.34-1.75-1.34-.23 0-.46-.08-.48-.22a11 11 0 0 1 .14-3.17 2 2 0 0 0-.26-1.81c-.34-.51-.46-.71-.34-.71zm-25.49-.56c-.17.03-.43.62-.57 1.61-.17 1.16-.14 1.22.29.65.25-.34.45-1.04.45-1.55q0-.72-.17-.71m6.12-1.05c-.17 0-.23.14-.12.3.09.18.26.32.31.32.09 0 .15-.14.15-.31s-.15-.31-.34-.31m9.29-.96q.17-.01.17.28c0 .14-.17.45-.43.65-.37.31-.42.26-.28-.28.08-.4.36-.65.54-.65m-2.44-.6c.2 0 .48.12.56.29.12.17.06.56-.14.88-.31.48-.37.48-.23-.14.09-.4 0-.77-.2-.85-.25-.12-.25-.14 0-.17zm-17.48-.34c-.39 0-.36.09.09.6q.54.62.2.82-.4.19.02.68c.32.36.43.34.82-.23.4-.57.4-.71-.08-1.28-.32-.31-.77-.6-1.05-.6zm1.4-.31c-.18 0-.06.23.25.46.34.25.62.76.65 1.1.03.37.34.85.68 1.1.71.52.8.46 1.24-.87.26-.74.57-1.02 1.11-1.02 1.27-.06 1.56-.12 1.56-.43 0-.4-3.51-.34-4.02.06q-.43.35-.79-.03c-.2-.2-.51-.37-.68-.37m7.61-.14c-.3 0-.62.12-.79.34-.46.63-.23 1.02.31.49.29-.29.46-.14.77.56.28.7.51.88 1.04.74.37-.09.6-.34.54-.54-.08-.2 0-.6.14-.9q.26-.52-.03-.54c-.17 0-.45.25-.62.54-.29.48-.31.5-.34.05 0-.48-.51-.76-1.02-.73zm5.44-.17c-.17 0-.37.14-.48.31s.03.31.28.31c.29 0 .51-.14.51-.31a.3.3 0 0 0-.3-.31m-1.27-.14-.49.71c-.28.37-.42.82-.3 1.02.33.51.79 0 .79-.9zm14.02-1.13q.5 0 .34.48c-.11.28 0 .48.31.48.46 0 .46.06.09.51-.4.49-.37.51.14.31q.52-.17.37.12c-.12.17-.49.3-.85.3-.37 0-.85.26-1.1.55s-.37.37-.23.14c.2-.43.31-1 .4-2.32.02-.31.28-.57.53-.57m-5.24-2.21c.17 0 .4.17.51.34.34.54.05.59-.4.11-.22-.23-.28-.45-.1-.45zm-10.06-1.11q-.36-.03-1.19.14c-.08.03.03.23.26.48.36.46 1.04.51 1.19.09.17-.48.14-.71-.26-.71m-2.32-.96q-.3-.01-.68.3c-.23.24-.19.49.14.86.77.9 1.7.14 1.08-.85q-.23-.35-.54-.31m1.9-.12c-.29 0-.51.14-.51.32s.14.3.31.3c.14 0 .37-.13.48-.3.12-.17-.03-.32-.28-.32m-14.53-.4c.17 0 .45.18.99.6 1.39 1.05 2.6 1.19 3.28.31.54-.62 1.28-.51 1.22.2q0 .42-.17 0c-.29-.71-.68-.42-1.05.7-.37 1.09-.45 1.14-2.58 1.57-.56.08-1.02-.62-.7-1.14.08-.14-.07-.28-.32-.28-.59 0-.65.37-.11.9.28.29.28.46 0 .74-.23.2-.4.29-.4.17s-.28 0-.62.31c-.34.29-.62.79-.62 1.1 0 .35-.14.89-.34 1.22-.39.77-.93.77-.93-.03 0-.34.2-.62.4-.62q.41-.03-.06-.31c-.29-.17-.34-.34-.17-.34.2 0 .36-.37.4-.82.05-.46.28-1.27.53-1.79.28-.51.48-1.13.48-1.36 0-.22.14-.42.31-.42s.31-.23.31-.51q.01-.18.14-.2zm12.49-3.08c-.17 0-.4.14-.51.34-.11.17-.06.3.11.3s.4-.13.51-.3q.16-.32-.1-.34zm-7.03-2.83c.17 0 .29.65.26 1.41 0 .88-.14 1.42-.37 1.42-.51 0-.82 1.3-.43 1.78q.34.39 0 .6c-.19.08-.34-.03-.34-.32 0-.28-.14-.42-.34-.31-.59.37.06-1.55.68-2.01.74-.54.8-1.05.09-.76-.46.17-.46.08-.09-.57.23-.42.4-.88.37-.99-.06-.14.03-.25.17-.25m13.94-.66q.2-.05.34.97c.08.56-.06.82-.46.9-.48.09-.54-.03-.34-.79q.25-1.07.46-1.08m-.03-.9c.17 0 .31.05.31.14 0 .05-.14.22-.31.34-.17.08-.31.03-.31-.14 0-.2.14-.34.31-.34m-12.18-.88c-.17.03-.28.45-.54 1.58-.1.51-.05.85.12.85.2 0 .34-.25.34-.56s.17-.74.37-.94c.28-.28.28-.45 0-.73q-.17-.19-.29-.2m12.07-.57h.05q.03 0 .06.03c.17.12.31.4.31.65s-.14.46-.31.46-.31-.32-.31-.66q.01-.43.2-.48m-14.08-2.92q.18 0 .31.2c.37.62 3.2.71 4.16.14 1.2-.68 1.99-.31 1.67.79a10 10 0 0 0-.11 4.2c.14.53.08.99-.12 1.21-.25.26-.22.34.06.34.23 0 .31.14.2.31-.4.63.14 1.5.82 1.34.85-.23 1.27-1.42.91-2.44-.17-.42-.17-.8-.03-.8.56 0 .17-1.58-.43-1.75-.56-.2-.56-.23.17-.62.4-.23 1-.42 1.31-.42.31-.03.54-.17.54-.37s.2-.26.45-.17c.26.08.54-.03.62-.29.26-.65 1.45-.42 1.62.31.42 1.84.65 4.25.42 4.34-.31.1.08 1.75.45 1.89.14.03.37-.11.51-.34.2-.31.43-.34.88-.08.54.28.63.62.6 2.29l-.03 1.98-.94-.08c-.88-.06-.9-.03-.39.36.85.66.65.8-.99.66-1.16-.09-1.59 0-1.73.34q-.17.45.42.45c.31 0 .68.17.82.34.11.2.48.29.82.2.37-.12.85.03 1.11.28.51.51 1.36.6 1.36.14 0-.2.56-.34 1.24-.34 1.36 0 2.16.57 2.98 2.18q1.06 2.1-1.05 1.79c-1.76-.29-3.94-.43-4.34-.29q-.34.15-.19 2.36c.11 1.89.03 2.29-.46 2.63-.5.4-.48.43.4.65.51.12 1.04.4 1.19.57.17.25.34.2.62-.12.23-.28.76-.42 1.39-.36.93.08 1.04 0 1.04-.71 0-.46-.14-.82-.34-.82a.3.3 0 0 0-.31.3c0 .2-.26.32-.6.32-.56 0-.56-.06-.14-.94.57-1.1.54-1.1 1.22-.42.4.37.6.42.94.11.25-.2.8-.31 1.22-.25.4.06.99-.09 1.27-.34.43-.37.51-.34.51.05 0 .29-.3.6-.65.71q-.68.21-.5.77c.13.62-.29 1.58-.74 1.58-.17 0-.85.34-1.53.77-.88.54-1.27 1.04-1.42 1.8-.11.6-.31.89-.45.72-.12-.2-.6-.46-1.05-.57a2.7 2.7 0 0 1-1.33-.99c-.63-.96-1.56-1.02-2.47-.17-.65.6-.65.74-.25 1.82.23.65.4 1.58.4 2.09-.04.54.19 1.1.56 1.42.45.37.62.96.68 2.29.06 1.42.2 1.84.62 1.96.31.05.65 0 .77-.17.08-.14.45-.2.79-.09.31.09.6.06.6-.11s-.37-.4-.8-.51c-.68-.17-.76-.34-.73-1.62.03-.76.14-1.5.31-1.58.14-.09.25 0 .25.2 0 .17.14.25.29.17.14-.09.2.14.14.54-.12.56 0 .7.51.7.36 0 .65-.08.65-.22 0-.4-.77-1.99-1.05-2.18-.48-.34-.62-2.7-.2-2.98.29-.17.34-.03.23.6-.14.76-.08.82.51.65a6 6 0 0 0 1.87-1.41 6 6 0 0 1 1.87-1.4c.74-.19 1.93-1.89 1.65-2.34-.09-.14.05-.34.31-.43.25-.11.68-.68.93-1.3.46-1.11.91-1.39 1.25-.82.11.14 0 .34-.26.43q-.41.15-.28 1.3c.11 1.05.06 1.16-.82 1.33q-1.7.33-.25 1.76l.71.7.08-1.15c.09-.91.2-1.11.49-.82.45.42.28 2.83-.23 3.17q-.37.24.03.22c.36 0 .34.32-.15 1.59-.36.96-.34 3.43.06 3.94.31.45.29.68-.34 1.33l-.7.76.68.91c.65.9.68.9 1.24.29.31-.34.65-.62.74-.62.37 0 1.33 1.07 1.19 1.33-.09.14.28.45.82.65s.96.59.96.9c0 .57.82 1 1.31.71.17-.11.2.14.08.66-.19.79-.17.82.46.42.37-.23.68-.6.68-.82 0-.2.28-.4.62-.4s.62-.1.62-.28c0-.14.43-.11.96.09.51.19.94.56.94.82.03.42.05.42.31.03.25-.4.31-.4.48.05q.2.5.88.37c.4-.11.91-.2 1.16-.2.26-.03.65-.25.85-.51.34-.45.42-.45.71-.05.17.28.34.34.34.17q.01-.3.23 0c.31.42 2.7 1.84 2.46 1.44-.1-.17.06-.25.34-.2.31.03.6.23.65.43.06.17.32.25.54.17.26-.09.51-.03.63.14.08.17-.03.39-.29.48-.25.12-.53.06-.62-.08-.22-.37-1.84-.11-2.2.37-.18.22-.74.39-1.25.34-.51-.03-1.1.08-1.33.25-.51.43-.54 1.84-.06 1.84.26 0 .26.11 0 .43-.2.22-.28.5-.2.59.12.12-.25.37-.76.6-.54.25-.97.59-.97.79 0 .54-.96.82-1.41.42a1 1 0 0 0-.94-.11c-.3.11-.68-.03-.96-.4-.4-.56-.46-.56-1.16.12-.9.85-1.08.88-1.3.23-.12-.26-.06-.4.08-.31.17.11.45-.12.65-.46.34-.65.28-.65-1.64-.56-1.47.05-1.99.23-1.99.56q.02.46-1.19.48c-.62.03-1.16-.05-1.16-.22 0-.14.14-.29.31-.29.17-.03.46-.08.62-.14l.63-.11c.17 0 .31-.14.31-.29s-1.05-.28-2.36-.34c-1.92-.06-2.35.03-2.35.43 0 .25-.39.56-.85.68-.68.17-.96.06-1.5-.62-.37-.46-.93-.82-1.27-.82-.31 0-.82-.23-1.1-.48a4 4 0 0 0-1.76-.63 7 7 0 0 1-1.39-.2 1 1 0 0 0-.42 0c-.15.04-1.3.12-2.61.2-2.04.12-2.4.23-3.06.97-.57.68-.9.82-1.53.65-.88-.23-1.45-1.47-.65-1.47.25 0 .4-.17.31-.4-.09-.2-.34-.31-.57-.25a4 4 0 0 1-.99.08c-.3 0-.53.2-.56.51 0 .43-.06.46-.26.12-.2-.31-.34-.31-.5-.09-.15.26-.4.26-.83.03-.68-.36-2.49-.11-2.49.34 0 .14.26.4.54.6.48.25.43.3-.3.3-.6.04-.83-.11-.69-.33.14-.2-.03-.57-.34-.8-.5-.36-.54-.53-.23-1.04.54-.88.48-1.02-.23-.62-.36.17-.65.5-.65.73 0 .48-.93.82-2.26.82-.6 0-.79-.11-.68-.42q.18-.42-.57-.4c-.39.04-.82-.05-.9-.2a4 4 0 0 0-1.59-.39c-3.09-.28-3.46-.37-3.82-.73-.2-.23-.26-.37-.09-.34.65.11 1.14-.03 1-.29-.09-.14-.49-.22-.91-.2-.4.04-.88-.05-1.08-.22-.23-.17-.57-.2-.77-.09-.28.2-.34-.45-.17-2.72q.28-4.7 1.42-6.03c.25-.29.31-.54.17-.54-.43 0-.32-2.1.17-2.64.23-.28.25-.54.08-.65-.59-.34 0-1.36.88-1.56 1.39-.25 2.44-1.61 2.24-2.8-.03-.14.28-.17.68-.06.37.12.96.26 1.24.34.32.09.57.37.57.62 0 .29.23.46.54.4.8-.17 2.04-3.01 2.12-4.87.09-1.64.34-2.16 1.7-3.37.43-.37 1.16-1.05 1.64-1.51 1.51-1.41 2.95-2.1 4.51-2.12 1.53-.03 2.07-.2 2.07-.68 0-.14-.6-.2-1.34-.08-2.89.39-2.86.42-2.94-1.27-.06-.82.03-2.13.17-2.9.17-.98.14-1.58-.17-2.09-.23-.42-.51-.99-.62-1.27-.12-.31-.32-.48-.43-.43-.14.09-.14-.4-.03-1.1.14-.68.11-1.34-.03-1.42-.17-.08-.19-.31-.1-.45.1-.17.02-.32-.18-.32-.28 0-.28-.11.03-.48.31-.4.29-.54-.2-.9-.34-.26-.48-.57-.34-.68q.05-.09.17-.09zm10.03-4.41q.39-.04.4.42c0 .29-.2.4-.46.31-.23-.11-.54-.03-.65.2-.17.28-.03.34.56.23.48-.09.85-.06.85.05 0 .31 1.36.31 1.76 0q.35-.33.79.23.45.55.06.29c-.23-.12-.6-.12-.8.03a3 3 0 0 1-1.33.3l-1.89.24c-.51.08-1.05.14-1.16.17-.12 0-.29.34-.34.73-.09.37-.17.51-.2.29s-.17-.34-.3-.23c-.18.09-.38-.03-.49-.31-.09-.26-.31-.46-.51-.46s-.29.12-.2.23c.08.14-.26.31-.77.34-.5.03-.9-.09-.9-.26 0-.36 1.36-.76 1.92-.56.23.08.6-.06.88-.29.29-.25.91-.79 1.42-1.21q.86-.73 1.36-.74m.2-49.29c.64 15.86.79 31.72.84 47.56-2.18.08-3.4 0-4.9 0-.23-15.84-.5-31.7.51-47.56 1.76-.08 2.72-.03 3.54 0m2.06-3.94q.11-.01.31.06c.17.06.2.29.06.54-.2.31-.34.31-.51.06-.2-.34-.12-.6.14-.66m-2.83-1.73q.08 0 .17.06c.25.09.4.29.28.46-.23.36-.34.34-.54-.17q-.12-.34.09-.34zm-1.96-.48c.8 0 .8.03.23.62-.5.57-.5.66-.03.66.34 0 .48.19.4.68-.12.82-.77 1.13-1.02.45-.09-.25-.43-.42-.74-.37-.3.06-.54-.08-.54-.34 0-.23.14-.42.31-.42s.23-.12.12-.23c-.37-.37.45-1.05 1.27-1.05m5.02-6.6c.2 0 .45.14.56.31.26.4.14.4-.45 0-.29-.17-.34-.31-.12-.31zm-3.91-.14h.05q.19.02.48.2.63.41.46 1.05c-.29.93-.54 1.1-1.08.76-.26-.14-.34-.28-.14-.28q.25-.04-.06-.26-.34-.22-.08-.96c.14-.34.23-.48.37-.51m-3.57 0c.23-.03.31.09.25.26-.14.45-1.16.68-1.16.25 0-.17.29-.37.62-.48q.17-.04.29-.03m6.15-.17c.25 0 .51.12.62.29.08.14-.03.34-.26.45-.48.17-.82-.03-.82-.48 0-.17.23-.25.46-.25z"/><path fill="#ffd500" d="M340.9 224.23a67 67 0 0 1-6.25 11.69c-3.75 5.62-4.17 11.98-5.44 18.13-1.43 6.93-5.84 9.95-10.27 12.5 19.2-5.96 30.18-22.04 21.97-42.33"/><path fill="url(#b)" d="M269.05 270.25c-2.59 31.68-15.28 80.97-43.93 84.64 38.39-11.91 60.36-44.07 43.93-84.64" transform="matrix(.5 0 0 .5 206.38 89.1)"/></g><path fill="none" stroke="#d4a900" stroke-width=".75" d="M340.9 224.23a67 67 0 0 1-6.25 11.69c-3.75 5.62-4.17 11.98-5.44 18.13-1.43 6.93-5.84 9.95-10.27 12.5 19.2-5.96 30.18-22.04 21.97-42.33z"/><path fill="#ffd500" fill-rule="evenodd" d="M351.59 205.08c-1.28 2.62-2.64 5.2-3.83 7.86-2.51 5.57-3.81 11-2.32 18.4 1.34 6.65.72 11.84-.9 18.48 9.35-8.85 13.8-19.68 9.06-33.86a44 44 0 0 1-2.01-10.88"/><path fill="url(#c)" fill-rule="evenodd" d="M290.41 231.96c-7.8 34.78 6.41 58.32-14.11 89.48 18.71-17.7 27.61-39.35 18.13-67.71-2.45-7.34-3.5-14.51-4.03-21.77z" transform="matrix(.5 0 0 .5 206.38 89.1)"/><path fill="none" stroke="#d4a900" stroke-width=".75" d="M351.59 205.08c-1.28 2.62-2.64 5.2-3.83 7.86-2.51 5.57-3.81 11-2.32 18.4 1.34 6.65.72 11.84-.9 18.48 9.35-8.85 13.8-19.68 9.06-33.86a44 44 0 0 1-2.01-10.88z"/><g fill-rule="evenodd"><path fill="#ffd500" d="M294.76 277.23c1.46-3.61 4.12-5.55 7.44-6.45a61 61 0 0 1 9.06-1.56c11.12-1.29 20.49-4.98 28.8-12.44 8.89-7.99 15.75-18.89 19.73-29.11l-.99-.38c-4.53 11.65-13.7 24.19-25.01 31.86-11.12 7.55-24.67 8.27-37.61 9.6a28 28 0 0 0-3.02 8.67z"/><path fill="#ffd500" d="M371.13 184.73c-3.32 4.07-7.7 7.72-10.43 12.2-3.5 5.74-3.02 12.08-1.86 19.23.8 4.95-.06 9.94-1 14.91 2.93-4.68 6.03-9.3 9.27-13.1 5.63-6.63 6.3-14.39 4.02-22.97-.95-3.6-.53-7.12 0-10.27"/><path fill="url(#d)" d="M329.5 191.25c-17.09 27-9.74 61.74-26.41 93.08 5.86-9.36 11.89-18.98 18.35-26.58 11.28-13.26 12.61-28.78 8.06-45.94-1.91-7.22-1.07-14.24 0-20.55z" transform="matrix(.5 0 0 .5 206.38 89.1)"/></g><path fill="none" stroke="#d4a900" stroke-width=".75" d="M371.13 184.73c-3.32 4.07-7.7 7.72-10.43 12.2-3.5 5.74-3.02 12.08-1.86 19.23.47 2.87.38 5.77.03 8.66a18 18 0 0 1-1.44 5.67c-4.86 10.69-13.37 22.06-23.65 29.03-11.12 7.55-24.67 7.9-37.61 9.24q-2 3.32-3.03 8.66l1.61-.2c1.46-3.6 4.12-5.54 7.44-6.45a61 61 0 0 1 9.06-1.56c11.13-1.28 20.31-5.53 28.61-13a76 76 0 0 0 18.57-25.3 32 32 0 0 1 2.85-5.16 90 90 0 0 1 5.82-7.78c5.64-6.63 6.3-14.39 4.03-22.97-.95-3.61-.53-7.12 0-10.27z"/><path fill="#ffd500" fill-rule="evenodd" d="M384.23 209.31a32 32 0 0 1-11.89 9.48 30 30 0 0 0-8.93 6.29c-5.03 5.2-5.98 12.14-12.23 18.08 4.97-3.02 10.04-4.52 14.92-5.84 11.46-3.1 18.08-12.1 18.13-28.01"/><path fill="url(#e)" fill-rule="evenodd" d="M355.7 240.42c-2.32 7.15-8.1 15.52-15.52 24-15.2 17.36-36.83 27.35-50.58 43.72 9.94-6.05 20.08-9.05 29.83-11.69 22.93-6.21 36.17-24.21 36.27-56.02z" transform="matrix(.5 0 0 .5 206.38 89.1)"/><path fill="none" stroke="#d4a900" stroke-width=".75" d="M384.23 209.31a32 32 0 0 1-11.89 9.48 30 30 0 0 0-8.93 6.29c-5.03 5.2-5.98 12.14-12.23 18.08 4.97-3.02 10.04-4.52 14.92-5.84 11.46-3.1 18.08-12.1 18.13-28.01z"/><path fill="#ffd500" fill-rule="evenodd" d="M363.07 272.19c-6.28-6.88-12.41-9.46-18.44-9.97-8.04-.7-19.92 1.68-27.1 4.93 4.95.94 20.34 10.82 37.28 6.45 2.55-1.08 5.5-1.15 8.26-1.41"/><path fill="url(#g)" fill-rule="evenodd" d="M313.38 366.17c-24.21-9.44-60.33-9.84-91.08-10.08 9.89 1.87 40.67 21.63 74.56 12.9 5.1-2.15 11.01-2.29 16.52-2.82" transform="matrix(.5 0 0 .5 206.38 89.1)"/><path fill="none" stroke="#d4a900" stroke-width=".75" d="M363.07 272.19c-6.28-6.88-12.41-9.46-18.44-9.97-8.04-.7-19.92 1.68-27.1 4.93 4.95.94 20.34 10.82 37.28 6.45 2.55-1.08 5.5-1.15 8.26-1.41z"/><path fill="#ffd500" fill-rule="evenodd" d="M373.15 240.95c-11.34 8.3-23.71-.97-39.5 19.75 5.96-1.4 10.7-.88 16.57-.43 9.1.7 17.05-3.73 22.93-19.32"/><path fill="url(#h)" fill-rule="evenodd" d="M333.54 303.7c-26.57 34.11-51.55 16.69-79 39.5 11.91-2.8 21.39-1.76 33.13-.86 18.21 1.39 34.12-7.47 45.87-38.63z" transform="matrix(.5 0 0 .5 206.38 89.1)"/><g fill="none" stroke="#d4a900"><path stroke-width=".75" d="M373.15 240.95c-11.34 8.3-23.71-.97-39.5 19.75 5.96-1.4 10.7-.88 16.57-.43 9.1.7 17.05-3.73 22.93-19.32z"/><path stroke-width=".5" d="M340.9 224.23c-1.29 15.84-7.64 40.48-21.96 42.32m32.65-61.47c-3.9 17.39 3.2 29.16-7.06 44.74m26.6-65.09c-8.54 13.5-4.87 30.87-13.2 46.54m26.3-21.96c-1.16 3.58-4.05 7.76-7.76 12-7.6 8.68-18.41 13.68-25.29 21.86m11.89 29.02c-12.1-4.72-30.16-4.92-45.54-5.04m55.62-26.2c-13.28 17.06-25.77 8.35-39.5 19.75"/><use href="#k" stroke-width=".75"/></g><path fill="#ffd500" stroke="#d4a900" stroke-width=".75" d="M324.57 98.76h34.15c1.7 0 3.1 1.45 3.1 3.22v2.15c0 1.77-1.4 3.22-3.1 3.22h-34.15c-1.7 0-3.1-1.45-3.1-3.22v-2.15c0-1.77 1.4-3.22 3.1-3.22zm0 24.97c-1.7 0-3.1-1.44-3.1-3.22v-2.15c0-1.77 1.4-3.22 3.1-3.22h34.15c1.7 0 3.1 1.45 3.1 3.22v2.15c0 1.78-1.4 3.22-3.1 3.22H346.5l-2.16 3.31c-.31.48-.86.68-1.43.61h-2.56a1.5 1.5 0 0 1-1.43-.6l-2.16-3.32zm15.6.48a1.47 1.47 0 1 0 2.94 0 1.47 1.47 0 0 0-2.94 0z"/><path fill="url(#i)" stroke="#a90000" stroke-width="1.5" d="M236.49 25.8h68.08v36.98h-68.08z" transform="matrix(.5 0 0 .5 206.38 89.1)"/><g fill="#ffd500"><path stroke="#d4a900" stroke-width=".75" d="M341.65 130.04a4.67 4.67 0 1 1 0 9.33 4.67 4.67 0 0 1 0-9.34zm-2.68 4.66a2.69 2.69 0 1 0 2.68-2.68 2.7 2.7 0 0 0-2.68 2.69z"/><path stroke="#d4a900" stroke-width=".75" d="M341.65 124.2c.59 0 1.07.5 1.07 1.1v7.02a1.1 1.1 0 0 1-1.08 1.11c-.59 0-1.06-.5-1.06-1.1v-7.03c0-.61.48-1.1 1.07-1.1z"/><use href="#l"/></g><path fill="url(#j)" d="m304.96 204.99-34.43-15.21-34.43 15.21 3.83-37.44-25.11-28.04 36.79-7.93 18.91-32.55 18.91 32.55 36.79 7.93-25.11 28.04 3.83 37.44z" transform="matrix(.5 0 0 .5 206.38 89.1)"/><path fill="#ffd500" fill-rule="evenodd" d="m324.44 191.59 1.91-18.72 15.3-4.97zm-10.64-32.74 18.39-3.96 9.45 13.01zm18.39-3.96 9.46-16.27v29.28zm37.31 3.96-18.4-3.96-9.45 13.01z"/><g fill="none" stroke="#d4a900"><path stroke-width=".25" d="m369.5 158.85-43.15 14.02m30.6.01-43.15-14.02m45.06 32.73-26.67-36.7m9.46-16.27v45.37m9.45-29.1-26.67 36.7"/><use href="#l"/></g><path fill="#ffd500" fill-rule="evenodd" d="m358.87 191.6-17.21-7.61v-16.08z"/></svg>
